<svg xmlns="http://www.w3.org/2000/svg" xmlns:xlink="http://www.w3.org/1999/xlink" version="1.1" viewBox="0 0 509.999 510" style="enable-background:new 0 0 509.999 510;" xml:space="preserve" height="100px" width="100px" transform="rotate(0) scale(1, 1)"><g id="_x30_6_x2C__Rose_x2C__plant_x2C__aroma_x2C__flowers_x2C__blossom_x2C__perfume_x2C__petals_x2C__nature"><g><g><path style="fill:#b11313;" d="M196.777,83.946c5.054,2.234,10.957-0.054,13.189-5.104c9.189-20.789,33.376-44.669,45.036-55.43     c11.659,10.753,35.83,34.609,45.029,55.437c1.651,3.738,5.313,5.963,9.153,5.963c7.211-0.005,12.059-7.438,9.142-14.043     c-14.097-31.915-55.121-66.923-56.86-68.397c-3.731-3.163-9.203-3.162-12.933,0c-1.739,1.474-42.754,36.472-56.86,68.385     C189.441,75.808,191.726,81.713,196.777,83.946z"/><path style="fill:#b11313;" d="M110.162,204.096c-26.275-13.142-71.467-13.835-73.377-13.857     c-4.682-0.114-9.083,3.291-9.966,8.243c-0.335,1.881-8.126,46.389-0.149,74.665c1.243,4.408,5.254,7.288,9.619,7.288     c6.624,0,11.429-6.337,9.629-12.718c-4.857-17.221-2.428-43.637-0.677-57.137c15.359,0.927,40.983,3.905,55.975,11.402     c4.939,2.472,10.945,0.468,13.416-4.471C117.103,212.572,115.102,206.565,110.162,204.096z"/><path style="fill:#b11313;" d="M483.179,198.481c-0.884-4.958-5.287-8.354-9.966-8.243c-1.91,0.022-47.102,0.716-73.377,13.857     c-4.939,2.47-6.94,8.477-4.47,13.416c2.47,4.939,8.477,6.943,13.416,4.471c15.992-7.998,42.38-10.566,55.977-11.379     c1.751,13.508,4.175,39.903-0.68,57.113c-1.5,5.315,1.594,10.84,6.909,12.339c5.313,1.502,10.84-1.595,12.339-6.909     C491.305,244.87,483.514,200.362,483.179,198.481z"/><g><path style="fill:#150b5e;" d="M354.999,120.959V68.462c0-5.522-4.478-10-10-10c-35.347,0-68.591,16.59-89.985,44.122      c-21.449-27.575-54.055-44.124-90.015-44.124c-5.523,0-10,4.478-10,10v52.5c0,18.015,5.354,35.368,15.485,50.185      c3.118,4.56,9.34,5.726,13.899,2.61c4.559-3.117,5.728-9.34,2.61-13.899c-7.848-11.477-11.995-24.926-11.995-38.896V78.982      c46.8,4.924,83.85,44.548,83.85,93.327V190c-8.987,0-5.379,0-14.81,0c-10.884,0-21.297-2.461-30.948-7.314      c-4.934-2.479-10.944-0.492-13.427,4.442c-2.48,4.934-0.492,10.945,4.442,13.427c12.465,6.268,25.899,9.445,39.933,9.445      c0.101,0,1.061,0,0.96,0v250c0,5.522,4.478,10,10,10c5.523,0,10-4.478,10-10V210C316.747,210,354.999,168.911,354.999,120.959z       M334.999,79v41.959c0,33.795-23.915,61.814-56.15,67.834v-16.483c0-18.212-4.253-35.769-12.281-51.545      C282.007,97.327,307.256,81.996,334.999,79z"/><path style="fill:#150b5e;" d="M151.388,323.231c32.452-27.95,35.192-74.795,9.389-105.988l-27.809-33.617      c-3.52-4.256-9.821-4.853-14.079-1.331c-22.479,18.595-35.135,46.405-34.9,75.129c-28.764-5.754-58.206,1.903-80.362,20.219      c-4.253,3.515-4.855,9.825-1.333,14.081l27.81,33.62c5.739,6.938,12.551,12.715,20.244,17.17      c4.78,2.768,10.898,1.137,13.665-3.642c2.768-4.779,1.138-10.897-3.642-13.665c-5.636-3.264-10.635-7.507-14.857-12.611      l-21.013-25.403c32.387-20.272,74.824-13.563,99.301,16.02l8.29,10.026c-0.138,0.114-8.297,6.856-8.175,6.765      c-8.818,7.291-19.477,11.642-30.823,12.581c-5.504,0.456-9.597,5.287-9.141,10.791c0.457,5.516,5.304,9.599,10.791,9.141      c15.144-1.254,29.372-6.977,41.223-16.547l49.946,60.386c3.53,4.267,9.835,4.841,14.08,1.332      c4.255-3.521,4.852-9.824,1.332-14.08L151.388,323.231z M104.334,263.918c-2.099-21.743,5.271-43.41,20.021-59.327l21.012,25.4      c16.922,20.457,16.92,49.168,1.249,69.425l-7.401-8.952C129.629,278.88,117.671,269.881,104.334,263.918z"/><path style="fill:#150b5e;" d="M506.371,277.642c-22.094-18.264-51.519-25.989-80.362-20.219      c0.235-28.723-12.421-56.534-34.9-75.129c-4.256-3.521-10.559-2.924-14.079,1.331l-27.809,33.617      c-25.754,31.134-22.478,76.913,7.178,104.004c0.849,0.943,1.235,1.144,2.211,1.984l-49.938,60.375      c-3.52,4.256-2.923,10.56,1.332,14.08c4.238,3.503,10.544,2.942,14.08-1.332l49.947-60.387      c13.692,11.048,30.815,16.802,46.789,16.802c5.475,0,9.941-4.41,9.997-9.897c0.058-5.522-4.373-10.045-9.896-10.102      c-12.849-0.133-24.896-4.548-34.838-12.765c-2.07-1.713-6.102-5.05-8.178-6.768l8.288-10.023      c24.549-29.671,66.997-36.243,99.303-16.022l-21.013,25.403c-3.344,4.042-7.204,7.569-11.475,10.486      c-4.56,3.114-5.733,9.337-2.618,13.897c3.115,4.561,9.336,5.733,13.897,2.618c5.817-3.973,11.068-8.769,15.605-14.254      l27.81-33.62C511.223,287.472,510.629,281.162,506.371,277.642z M370.782,290.468l-7.405,8.956      c-15.664-20.221-15.68-48.96,1.255-69.433l21.012-25.4c14.749,15.917,22.119,37.584,20.02,59.327      C392.327,269.882,380.369,278.881,370.782,290.468z"/></g><path style="fill:#b11313;" d="M370.046,374.953h-23.729c-40.161,0-74.938,23.484-91.318,57.444     c-16.381-33.96-51.157-57.444-91.318-57.444h-23.729c-5.522,0-10,4.478-10,10v23.729c0,55.867,45.451,101.318,101.318,101.318     h47.457c55.867,0,101.318-45.451,101.318-101.318v-23.729C380.046,379.431,375.569,374.953,370.046,374.953z M149.952,408.681     v-13.729h13.729c43.419,0,78.998,34.206,81.208,77.084L244.962,490h-13.692C186.432,490,149.952,453.52,149.952,408.681z      M360.046,408.681c0,44.839-36.48,81.318-81.318,81.318h-13.765l-0.051-12.471c0.052-0.413,0.087-0.831,0.087-1.258     c0-44.839,36.479-81.318,81.318-81.318h13.729V408.681z"/></g></g></g><g id="Layer_1"/></svg>