<svg viewBox="0 0 60 60" xmlns="http://www.w3.org/2000/svg"><g data-name="Layer 2"><g data-name="Data Analysis"><path d="M0 0h60v60H0z" fill="none"></path><path d="M49.1 10.44 47 10v-.32a3 3 0 0 0-3-3H32.78L21.85 4.14a3 3 0 0 0-3.62 2.26l-.06.27H16a3 3 0 0 0-3 3v19.39L8.64 48a3 3 0 0 0 2.26 3.61l2.1.49v.27a3 3 0 0 0 3 3h11.32l.11.05 10.72 2.48a3 3 0 0 0 3.62-2.26l.06-.27H44a3 3 0 0 0 3-3V32.94l4.36-18.89a3 3 0 0 0-2.26-3.61ZM13 50l-1.65-.39a1 1 0 0 1-.76-1.21L13 38Zm8.4-43.91 2.49.58h-3.63a1 1 0 0 1 1.14-.58Zm17.2 49.82-2.48-.58h3.62a1 1 0 0 1-1.14.58Zm6.4-3.59a1 1 0 0 1-1 1H16a1 1 0 0 1-1-1V9.68a1 1 0 0 1 1-1h28a1 1 0 0 1 1 1Zm4.41-38.72L47 24.05V12l1.65.38a1 1 0 0 1 .76 1.22Z" fill="#150b5e" class="fill-3d3d63"></path><path d="M40 47.83H21V39.7a1 1 0 0 0-2 0v9.13a1 1 0 0 0 1 1h20a1 1 0 0 0 0-2ZM23.33 22.22a4.34 4.34 0 0 0 4.34-4.33 4.29 4.29 0 0 0-.67-2.27l1.82-1.81a1 1 0 0 0-1.42-1.42l-4.08 4.08-2.27-2.27a1 1 0 0 0-1.41 0 1 1 0 0 0 0 1.41 4.28 4.28 0 0 0-.64 2.28 4.33 4.33 0 0 0 4.33 4.33Zm-2.19-5.11 1.49 1.49a1 1 0 0 0 .7.29 1 1 0 0 0 .67-.29l1.49-1.49a2.56 2.56 0 0 1 .14.78 2.34 2.34 0 0 1-4.67 0 2.29 2.29 0 0 1 .18-.78ZM23.33 33.18A4.34 4.34 0 1 0 19 28.84a4.35 4.35 0 0 0 4.33 4.34Zm0-6.67A2.34 2.34 0 1 1 21 28.84a2.34 2.34 0 0 1 2.33-2.33Z" fill="#150b5e" class="fill-3d3d63"></path><path d="M40 35.38h-3.92a1 1 0 0 0 0 2h1.51L32 43l-3.93-4a1 1 0 0 0-1.41 0l-3.58 3.59A1 1 0 1 0 24.49 44l2.88-2.88 3.92 3.93a1 1 0 0 0 1.42 0L39 38.8v1.5a1 1 0 0 0 2 0v-3.92a1 1 0 0 0-1-1ZM31.33 27.84h4.29a1 1 0 0 0 0-2h-4.29a1 1 0 0 0 0 2ZM31.33 31.85h8.23a1 1 0 0 0 0-2h-8.23a1 1 0 0 0 0 2ZM31.33 16.89h4.29a1 1 0 0 0 0-2h-4.29a1 1 0 0 0 0 2ZM31.33 20.89h8.23a1 1 0 0 0 0-2h-8.23a1 1 0 0 0 0 2Z" fill="#150b5e" class="fill-3d3d63"></path></g></g></svg>