<svg viewBox="0 0 60 60" xmlns="http://www.w3.org/2000/svg"><g data-name="Layer 2"><path d="M0 0h60v60H0z" fill="none"></path><path d="M34 53.91H12.33a.32.32 0 0 1-.32-.33v-21.9a8.48 8.48 0 0 0 2.62.72V51a1 1 0 0 0 1 1h12.26a1 1 0 0 0 0-2h-11.3V32.4a8.83 8.83 0 0 0 5.74-14.52h21.12v13.43a1 1 0 0 0 2 0V16.9a1 1 0 0 0-1-1H20a8.73 8.73 0 0 0-8-.35v-3.89a.32.32 0 0 1 .32-.33h10.17V13a1 1 0 0 0 1 1h13.1a1 1 0 0 0 1-1v-1.67h10.12a.32.32 0 0 1 .32.33v20.59a1 1 0 0 0 2 0V11.66a2.3 2.3 0 0 0-2.29-2.29H37.55V9a1 1 0 0 0-1-1h-2.27V7a3 3 0 0 0-3-2.95h-2.57a3 3 0 0 0-2.95 3v1h-2.29a1 1 0 0 0-1 1v.33H12.33A2.3 2.3 0 0 0 10 11.66v5.09a8.84 8.84 0 0 0 0 13.73v23.1a2.3 2.3 0 0 0 2.29 2.3H34a1 1 0 0 0 0-2ZM28.71 6.09h2.62a1 1 0 0 1 1 1v1h-4.6v-1a1 1 0 0 1 .98-1ZM24.45 10h11.14v2H24.45ZM8.73 23.62a6.88 6.88 0 1 1 6.9 6.87 6.89 6.89 0 0 1-6.9-6.87Z" fill="#150b5e" class="fill-3d3d63"></path><path d="M45.3 35.79a10.23 10.23 0 0 0-4.19.92l-.2-.34a1 1 0 0 0-1.34-.37 11.51 11.51 0 0 0-5.72 9.93 1 1 0 0 0 1 1h.37A10.15 10.15 0 1 0 45.3 35.79Zm-5.57 2.46L43.6 45h-7.73a9.54 9.54 0 0 1 3.86-6.75Zm5.57 15.88a8.19 8.19 0 0 1-8.12-7.21h8.12a1 1 0 0 0 .85-1.47l-4.06-7a8.19 8.19 0 1 1 3.21 15.68ZM24.33 34.49a1 1 0 0 0-1.39 0L20 37.39a1 1 0 0 0 0 1.39.94.94 0 0 0 .69.29 1 1 0 0 0 .7-.29l2.2-2.2 2 2a1 1 0 0 0 1.39 0l3.77-3.78 1.72 1.72a1 1 0 0 0 1.39 0L40 30.47a1 1 0 0 0 0-1.39 1 1 0 0 0-1.39 0l-5.38 5.39-1.72-1.72a1 1 0 0 0-1.39 0l-3.78 3.78ZM12.93 24.56a2.59 2.59 0 0 0 2 .26l1.9-.51a.63.63 0 0 1 .5.07.59.59 0 0 1 .3.39.66.66 0 0 1-.46.81l-2.85.76a1 1 0 0 0 .26 1.93c.08 0 1.2-.29 1.2-.29l.09.32a1 1 0 0 0 .94.73.78.78 0 0 0 .26 0 1 1 0 0 0 .69-1.2l-.08-.32a2.62 2.62 0 1 0-1.36-5.06l-1.89.51a.67.67 0 0 1-.5-.06.69.69 0 0 1-.31-.4.66.66 0 0 1 .47-.8l2.84-.77a1 1 0 0 0 .7-1.2A1 1 0 0 0 16.4 19l-.94.26-.09-.32a1 1 0 0 0-1.9.51l.09.32a2.62 2.62 0 0 0-.63 4.8ZM39.33 21H27.54a1 1 0 1 0 0 2h11.79a1 1 0 1 0 0-2ZM39.33 24.27h-7.21a1 1 0 0 0 0 2h7.21a1 1 0 0 0 0-2Z" fill="#150b5e" class="fill-3d3d63"></path></g></svg>